# xmcd
# Track frame offsets:
# 150
# 21742
# 34065
# 51607
# 66162
# 87887
# 114402
# 131602
# 148412
#
# Disc length: 2217 seconds
# Revision: 0
# Processed by: cddbd v1.4PL0 Copyright (c) Steve Scherf et al.
# Submitted via: VisiTrax 2.9.3.171 - For more info visit www.synapsa.com
#
DISCID=8b08a709
DTITLE=Walter Rossi - Walter Rossi
DYEAR=1976
DGENRE=Blues Rock
TTITLE0=Goin´Down
TTITLE1=Little miss evil
TTITLE2=Ghasing rainbows
TTITLE3=Et goin´fast
TTITLE4=Ripdad
TTITLE5=Woman, sweet woman
TTITLE6=Rock me baby
TTITLE7=Dance with me
TTITLE8=Hey Serena
EXTD=
EXTT0=
EXTT1=
EXTT2=
EXTT3=
EXTT4=
EXTT5=
EXTT6=
EXTT7=
EXTT8=
PLAYORDER=
